<?xml version="1.0" standalone="no"?>
<!DOCTYPE svg PUBLIC "-//W3C//DTD SVG 20010904//EN"
 "http://www.w3.org/TR/2001/REC-SVG-20010904/DTD/svg10.dtd">
<svg version="1.0" xmlns="http://www.w3.org/2000/svg"
 width="1024.000000pt" height="1024.000000pt" viewBox="0 0 1024.000000 1024.000000"
 preserveAspectRatio="xMidYMid meet">
<metadata>
Created by potrace 1.14, written by Peter Selinger 2001-2017
</metadata>
<g transform="translate(0.000000,1024.000000) scale(0.100000,-0.100000)"
fill="#000000" stroke="none">
<path d="M4888 10235 c-2 -1 -43 -6 -93 -9 -112 -9 -146 -12 -287 -32 -38 -5
-267 -49 -308 -59 -8 -2 -28 -6 -45 -10 -369 -87 -801 -267 -1128 -469 -92
-56 -276 -184 -341 -236 -526 -419 -899 -924 -1123 -1520 -27 -71 -37 -103
-82 -260 -34 -118 -67 -272 -87 -409 -4 -25 -8 -55 -10 -65 -30 -168 -24 -643
12 -866 4 -25 8 -52 9 -60 1 -8 5 -28 8 -45 4 -16 9 -44 12 -62 18 -110 91
-361 155 -528 39 -104 179 -399 217 -457 17 -27 17 -29 -5 -65 -131 -219 -265
-557 -336 -844 -35 -144 -40 -165 -51 -249 -3 -25 -8 -53 -11 -62 -5 -18 -8
-45 -21 -183 -15 -165 -7 -590 12 -680 2 -11 7 -38 10 -60 11 -82 26 -169 29
-174 2 -3 7 -22 10 -41 9 -57 14 -75 41 -177 27 -100 69 -232 85 -268 5 -11
23 -54 39 -96 47 -121 142 -314 216 -439 417 -706 1065 -1241 1880 -1553 91
-35 235 -84 271 -92 10 -2 53 -14 94 -25 72 -20 213 -53 275 -64 181 -34 260
-45 460 -63 101 -9 533 -9 645 0 103 8 139 12 245 28 39 6 88 13 110 15 22 3
56 9 75 14 19 5 51 12 70 15 162 27 544 142 695 209 17 8 64 28 105 46 272
117 662 354 850 516 170 147 216 189 285 258 357 363 573 692 780 1191 5 11 9
22 10 25 1 3 4 12 8 20 59 153 142 489 163 660 1 14 5 39 8 55 30 177 28 618
-4 830 -5 33 -11 78 -15 100 -10 72 -16 101 -40 200 -9 39 -18 79 -21 90 -10
50 -80 261 -122 370 -25 66 -85 198 -134 294 l-87 173 69 132 c37 72 87 176
110 231 23 55 48 114 55 130 57 133 152 488 171 640 3 28 8 53 10 56 2 3 6 32
9 65 3 32 8 77 11 99 3 22 7 141 8 265 3 213 -5 342 -33 528 -78 522 -309
1063 -639 1497 -139 183 -365 421 -527 555 -49 41 -92 77 -95 80 -27 28 -294
216 -371 260 -321 186 -520 278 -814 375 -263 88 -594 160 -825 180 -41 4 -88
9 -105 11 -34 6 -562 14 -567 9z"/>
</g>
</svg>
